<svg width="16" height="12" viewBox="0 0 16 12" fill="none" xmlns="http://www.w3.org/2000/svg">
<path d="M11.5 3.13188V3C11.5 2.08625 10.8231 1.27812 9.59313 0.725C8.55438 0.2575 7.1875 0 5.75 0C4.3125 0 2.94562 0.2575 1.90687 0.725C0.676875 1.27812 0 2.08625 0 3V5.5C0 6.41375 0.676875 7.22187 1.90687 7.775C2.5753 8.06423 3.27915 8.26347 4 8.3675V8.5C4 9.41375 4.67688 10.2219 5.90688 10.775C6.94563 11.2425 8.3125 11.5 9.75 11.5C11.1875 11.5 12.5544 11.2425 13.5931 10.775C14.8231 10.2219 15.5 9.41375 15.5 8.5V6C15.5 4.61625 13.9194 3.505 11.5 3.13188ZM14 6C14 6.48438 12.6394 7.405 10.1369 7.4925C11.0206 6.9625 11.5 6.26875 11.5 5.5V4.6525C13.1175 4.94688 14 5.5925 14 6ZM6.46063 6.97688C6.23375 6.99188 5.99688 7 5.75 7C5.4325 7 5.13187 6.98625 4.84812 6.96187C4.82449 6.95877 4.80071 6.95689 4.77688 6.95625C4.6825 6.9475 4.58937 6.9375 4.5 6.92625V5.93312C4.91517 5.97773 5.33244 6.00005 5.75 6C6.16756 6.00005 6.58483 5.97773 7 5.93312V6.92625C6.84437 6.945 6.68313 6.96125 6.51562 6.97313C6.5 6.97375 6.47875 6.975 6.46063 6.97688ZM10 5.07125V5.5C10 5.79875 9.4825 6.26312 8.5 6.59625V5.65875C8.87409 5.56066 9.23965 5.43253 9.59313 5.27563C9.73646 5.21104 9.87208 5.14292 10 5.07125ZM5.75 1.5C8.5 1.5 10 2.49063 10 3C10 3.50937 8.5 4.5 5.75 4.5C3 4.5 1.5 3.50937 1.5 3C1.5 2.49063 3 1.5 5.75 1.5ZM1.5 5.5V5.07125C1.62833 5.1425 1.76396 5.21042 1.90687 5.275C2.26035 5.43191 2.62591 5.56003 3 5.65812V6.59562C2.0175 6.26312 1.5 5.79875 1.5 5.5ZM5.5 8.5H5.75C5.97667 8.5 6.20104 8.49333 6.42312 8.48C6.60854 8.54542 6.80083 8.605 7 8.65875V9.59625C6.0175 9.26312 5.5 8.79875 5.5 8.5ZM8.5 9.92625V8.93375C8.91518 8.97815 9.33245 9.00026 9.75 9C10.1676 9.00005 10.5848 8.97773 11 8.93312V9.92625C10.1696 10.0246 9.33043 10.0246 8.5 9.92625ZM12.5 9.59625V8.65875C12.8741 8.56066 13.2397 8.43253 13.5931 8.27563C13.7365 8.21146 13.8721 8.14354 14 8.07187V8.5C14 8.79875 13.4825 9.26312 12.5 9.59625Z" fill="black"/>
</svg>
